<?xml version="1.0" standalone="no"?><!DOCTYPE svg PUBLIC "-//W3C//DTD SVG 1.1//EN" "http://www.w3.org/Graphics/SVG/1.1/DTD/svg11.dtd"><svg t="1736426581836" class="icon" viewBox="0 0 1024 1024" version="1.1" xmlns="http://www.w3.org/2000/svg" p-id="1534" xmlns:xlink="http://www.w3.org/1999/xlink" width="200" height="200"><path d="M929.1904 845.8112H622.9504c-15.3728 0-27.84-12.4672-27.84-27.84s12.4672-27.84 27.84-27.84h250.56c15.3728 0 27.84-12.4672 27.84-27.84v-612.48c0-15.3728-12.4672-27.84-27.84-27.84H646.016c-7.3856 0-14.464 2.9312-19.6864 8.1536l-95.0528 95.0528a27.8336 27.8336 0 0 1-19.6864 8.1536H149.6832c-15.3728 0-27.84 12.4672-27.84 27.84v501.1072c0 15.3728 12.4672 27.84 27.84 27.84h250.56c15.3728 0 27.84 12.4672 27.84 27.84s-12.4672 27.84-27.84 27.84H94.0032c-15.3728 0-27.84-12.4672-27.84-27.84v-612.48c0-15.3728 12.4672-27.84 27.84-27.84h394.5344c7.3856 0 14.464-2.9312 19.6864-8.1536l95.0528-95.0528c5.2224-5.2224 12.3008-8.1536 19.6864-8.1536h306.2272c15.3728 0 27.84 12.4672 27.84 27.84v723.8272c0 15.4112-12.4672 27.8656-27.84 27.8656z m-111.36 55.68c15.3728 0 27.84 12.4672 27.84 27.84s-12.4672 27.84-27.84 27.84-27.84-12.4672-27.84-27.84 12.4672-27.84 27.84-27.84z m111.36 0c15.3728 0 27.84 12.4672 27.84 27.84s-12.4672 27.84-27.84 27.84-27.84-12.4672-27.84-27.84 12.4672-27.84 27.84-27.84z m-835.1872 0c15.3728 0 27.84 12.4672 27.84 27.84s-12.4672 27.84-27.84 27.84-27.84-12.4672-27.84-27.84 12.4672-27.84 27.84-27.84z m111.36 0c15.3856 0 27.84 12.4672 27.84 27.84s-12.4672 27.84-27.84 27.84-27.84-12.4672-27.84-27.84 12.4672-27.84 27.84-27.84z m111.36 0h389.7472c15.3728 0 27.84 12.4672 27.84 27.84s-12.4672 27.84-27.84 27.84H316.7232c-15.3728 0-27.84-12.4672-27.84-27.84s12.4672-27.84 27.84-27.84z m-27.84 0" fill="#409EFF" p-id="1535"></path><path d="M511.6032 790.1312c15.3728 0 27.84 12.4672 27.84 27.84v111.36c0 15.3728-12.4672 27.84-27.84 27.84s-27.84-12.4672-27.84-27.84v-111.36c0-15.3728 12.4544-27.84 27.84-27.84z m-389.76-111.36h779.5072c15.3728 0 27.84 12.4672 27.84 27.84s-12.4672 27.84-27.84 27.84H121.8432c-15.3728 0-27.84-12.4672-27.84-27.84s12.4672-27.84 27.84-27.84z m-27.84 0" fill="#409EFF" p-id="1536"></path></svg>